<svg xmlns="http://www.w3.org/2000/svg" viewBox="0 0 539.92 153.91"><defs><style>.cls-1{fill:#fff;}</style></defs><g id="Layer_2" data-name="Layer 2"><g id="Layer_1-2" data-name="Layer 1"><path class="cls-1" d="M241.16,38.8c0-8.95-5-12.3-13.22-12.3H215.86V66.74h5.49V51.31h5.93c7.68,0,13.88-3.29,13.88-12.51m-5.65-.06c0,6.64-3.84,8-8.29,8h-5.87V31.06h6.42c4.12,0,7.74,1.37,7.74,7.68m32.33,28V43.35c0-4.83-2.36-6.31-7.08-6.31a46.1,46.1,0,0,0-12.19,2.09l1,4.28a42.89,42.89,0,0,1,10.6-2c2.08,0,3,.77,3,2.53v6.69l-8.83,1c-4.5.49-7.63,2.74-7.63,8s2.69,7.68,7.46,7.68c1.59,0,3.9-.27,8.84-2.68h.38l.28,2.14Zm-4.67-5C259.72,63,257.52,63.5,256,63.5c-3.29,0-4.5-1.21-4.5-4.29A6,6,0,0,1,253,55.1l10.2-1Zm29.64-24.38a8.82,8.82,0,0,0-1.75-.27c-1.76,0-3.19.49-7,3.62h-.33V37.59h-4.88V66.74h4.88V44.67c3-2,4.28-2.64,6.48-2.64a7.31,7.31,0,0,1,2,.39ZM316.42,65l-.94-4.34c-4.5,1.92-5.76,2-6.64,2-1.15,0-1.7-.44-1.7-1.7V41.87h8.45V37.59h-8.45v-7.3l-4.89.93v6.37h-4.06v4.28h4.06V61c0,4.33,1.65,6.25,5.66,6.25,1.64,0,3.24-.16,8.51-2.3m13.11-27.39h-4.88V66.74h4.88Zm.66-9a3.1,3.1,0,0,0-6.2,0,3.1,3.1,0,0,0,6.2,0m29.31,38.1V43.35c0-4.83-2.36-6.31-7.08-6.31a46,46,0,0,0-12.18,2.09l1,4.28a43,43,0,0,1,10.6-2c2.08,0,3,.77,3,2.53v6.69l-8.84,1c-4.5.49-7.63,2.74-7.63,8s2.69,7.68,7.46,7.68c1.6,0,3.9-.27,8.84-2.68h.38l.28,2.14Zm-4.66-5c-3.46,1.31-5.66,1.81-7.14,1.81-3.29,0-4.5-1.21-4.5-4.29a6,6,0,0,1,1.43-4.11l10.21-1Z"></path><path class="cls-1" d="M247.86,106.13c0-14.38-7.47-19.32-17.89-19.32H215.86V127h14.27c11.36,0,17.73-7,17.73-20.91m-9.93.22c0,10.7-2,13-8,13h-4.78V94.44H230c5.11,0,7.91,1.59,7.91,11.91m38.75,19.1-1.43-7c-5.82,1.7-7.74,1.86-8.84,1.86-3.68,0-4.94-1.15-4.94-5.43,8.23-.22,15.48-.5,15.48-.5a49.25,49.25,0,0,0,.27-5.1c0-7.85-4.22-11.91-11.52-11.91-8,0-12.9,4.83-12.9,15.64,0,9.77,4.55,14.6,13.61,14.6,2.14,0,5.44-.6,10.27-2.14m-7.63-15.92c-3,.11-7.47.17-7.47.17.06-5.32,1.26-6.59,3.95-6.59,2.36,0,3.57,1.21,3.57,4.5,0,.55,0,1.1-.05,1.92M322.78,127V104.48c0-4.44-2.25-7.13-7-7.13-2.26,0-4.62.38-8.84,3h-.55c-.82-2.25-2.36-3-5.05-3-2.25,0-4.94.55-9.06,2.91h-.55V97.9h-8.23V127h8.23V106.41a13.45,13.45,0,0,1,5.49-1.54c1.32,0,1.81.49,1.81,1.92V127h8.24V106.41a13,13,0,0,1,5.38-1.54c1.48,0,1.92.49,1.92,1.92V127Zm33.37-14.54c0-11.14-5.93-15.15-13.55-15.15-8.18,0-13.73,4.45-13.73,15.15,0,10.48,5.33,15.09,13.62,15.09,8.5,0,13.66-4.94,13.66-15.09m-8.78,0c0,7.19-1.54,8.46-4.88,8.46s-4.83-1.38-4.83-8.51c0-7.41,1.64-8.56,4.83-8.56s4.88,1,4.88,8.61m41.06-14.49-8.62-.33-5.93,7.36a20,20,0,0,0-2.91,5.1h-.49V84.34l-8.07.88V127h8.07v-6.75l3.9-4.88,3.67,7.13c1.87,3.68,3.95,4.67,7.19,4.67a19.79,19.79,0,0,0,2.36-.17v-8a5.24,5.24,0,0,1-1.09.11c-.88,0-1.21-.17-1.93-1.43L379.7,109Zm22.23-.33a11.07,11.07,0,0,0-2.58-.38c-1.71,0-3.13.66-5.93,3.29h-.5V97.9h-8.23V127h8.23v-20a10.5,10.5,0,0,1,5.05-1.48,13.19,13.19,0,0,1,3.24.61ZM436.73,127V105c0-5.49-2.86-7.63-8.62-7.63a48,48,0,0,0-13.45,2.36l1.65,7a44.31,44.31,0,0,1,10.7-2c1.26,0,1.76.44,1.76,1.59V110l-5.44.6c-6.09.66-10.21,2.91-10.21,8.78,0,5.66,2.8,8.18,8.18,8.18,1.54,0,3.19-.27,7.41-2.47h.5l.33,1.92Zm-8-6.31a13.58,13.58,0,0,1-4.34.88c-2.36,0-3.18-.77-3.18-2.69a6.3,6.3,0,0,1,.66-2.91l6.86-.66Zm35.29,4.39-1.32-7.19c-4.28,1.59-5.43,1.87-6.36,1.87s-1.32-.39-1.32-1.48V105h7.85V97.9h-7.85V90.6L446.72,92V97.9h-3.79V105h3.79v14.11c0,5.81,2.25,8.5,7.68,8.5,1.92,0,4-.22,9.66-2.47M478.22,97.9h-8.28V127h8.28Zm.72-8.07c0-3.13-2.09-4.56-4.89-4.56-3,0-4.83,1.6-4.83,4.56s1.87,4.61,4.83,4.61c3.13,0,4.89-1.76,4.89-4.61m33.31,8.23-8.62-.33-5.92,7.36a19.46,19.46,0,0,0-2.91,5.1h-.5V84.34l-8.06.88V127h8.06v-6.75l3.9-4.88,3.68,7.13c1.87,3.68,3.95,4.67,7.19,4.67a19.79,19.79,0,0,0,2.36-.17v-8a5.27,5.27,0,0,1-1.1.11c-.88,0-1.21-.17-1.92-1.43L503.53,109Zm27.12,27.39-1.43-7c-5.82,1.7-7.74,1.86-8.84,1.86-3.68,0-4.94-1.15-4.94-5.43,8.24-.22,15.48-.5,15.48-.5a49.75,49.75,0,0,0,.28-5.1c0-7.85-4.23-11.91-11.53-11.91-8,0-12.9,4.83-12.9,15.64,0,9.77,4.56,14.6,13.61,14.6,2.14,0,5.44-.6,10.27-2.14m-7.63-15.92c-3,.11-7.47.17-7.47.17.06-5.32,1.26-6.59,4-6.59,2.37,0,3.57,1.21,3.57,4.5,0,.55,0,1.1,0,1.92"></path><polygon class="cls-1" points="79.58 76.92 79.63 76.93 79.62 76.92 79.58 76.92"></polygon><path class="cls-1" d="M79,0A83,83,0,0,0,37.9,11.29l-2.39,1.47S47.8,31,50.81,35.5C59,30.35,68.3,27.82,79,27.82c31.22,0,53.91,23.46,54,49.14s-22.75,49.11-54,49.13a44.3,44.3,0,0,1-8.16-.75V68.87a19.25,19.25,0,0,1,8.72-2.32c12.53.08,15.12,7.06,15.14,10.74.1,3.48-4,10-12.78,10.71l-3,.26v26.52H82.2c16.31-.12,38.48-14.11,38.81-37.49-.19-24.19-22.44-38-42.91-38.09-12.27,0-25.34,5.43-32.89,16.26,0,18.06.45,90.42.45,90.42a72.39,72.39,0,0,0,33.36,8c21.43,0,41.43-7.62,56.16-21.08S159.3,100,159.28,77C159.26,31.61,121.83.08,79,0"></path><path class="cls-1" d="M79,0A83,83,0,0,0,37.9,11.29l-2.39,1.47S47.8,31,50.81,35.5C59,30.35,68.3,27.82,79,27.82c31.22,0,53.91,23.46,54,49.14s-22.75,49.11-54,49.13a44.3,44.3,0,0,1-8.16-.75V68.87a19.25,19.25,0,0,1,8.72-2.32c12.53.08,15.12,7.06,15.14,10.74.1,3.48-4,10-12.78,10.71l-3,.26v26.52H82.2c16.31-.12,38.48-14.11,38.81-37.49-.19-24.19-22.44-38-42.91-38.09-12.27,0-25.34,5.43-32.89,16.26,0,18.06.45,90.42.45,90.42a72.39,72.39,0,0,0,33.36,8c21.43,0,41.43-7.62,56.16-21.08S159.3,100,159.28,77C159.26,31.61,121.83.08,79,0"></path><path class="cls-1" d="M6,106.88q1.05,2.4,2.25,4.72l25-12.32c-.5-1-1-2-1.39-2.94Z"></path><path class="cls-1" d="M6,106.88q1.05,2.4,2.25,4.72l25-12.32c-.5-1-1-2-1.39-2.94Z"></path><path class="cls-1" d="M0,82.92A74.57,74.57,0,0,0,1.71,94l27.42-6A48.31,48.31,0,0,1,28,80.81Z"></path><path class="cls-1" d="M0,82.92A74.57,74.57,0,0,0,1.71,94l27.42-6A48.31,48.31,0,0,1,28,80.81Z"></path><path class="cls-1" d="M4.58,50.56A74.45,74.45,0,0,0,0,70.88L28,73a48.17,48.17,0,0,1,3-13.17Z"></path><path class="cls-1" d="M4.58,50.56A74.45,74.45,0,0,0,0,70.88L28,73a48.17,48.17,0,0,1,3-13.17Z"></path><path class="cls-1" d="M28.81,17.55A77.69,77.69,0,0,0,8.75,41.46L33.69,53.94A50.41,50.41,0,0,1,46.5,38.61Z"></path><path class="cls-1" d="M28.81,17.55A77.69,77.69,0,0,0,8.75,41.46L33.69,53.94A50.41,50.41,0,0,1,46.5,38.61Z"></path></g></g></svg>