<svg width="155" height="65" viewBox="0 0 155 65" fill="none" xmlns="http://www.w3.org/2000/svg">
<path d="M35.342 44.69L22.508 33.098L23.497 33.65L23.566 44H20.185V26.405H20.323L32.881 37.951L32.145 37.629L32.076 27.072H35.434V44.69H35.342ZM38.7584 35.559C38.7584 34.3937 38.9807 33.2897 39.4254 32.247C39.8701 31.2043 40.4834 30.2843 41.2654 29.487C42.0627 28.6743 42.9827 28.038 44.0254 27.578C45.0681 27.118 46.1797 26.888 47.3604 26.888C48.5564 26.888 49.6757 27.118 50.7184 27.578C51.7611 28.038 52.6811 28.6743 53.4784 29.487C54.2911 30.2843 54.9197 31.2043 55.3644 32.247C55.8244 33.2897 56.0544 34.3937 56.0544 35.559C56.0544 36.755 55.8244 37.8743 55.3644 38.917C54.9197 39.9597 54.2911 40.8797 53.4784 41.677C52.6811 42.459 51.7611 43.0723 50.7184 43.517C49.6757 43.9617 48.5641 44.184 47.3834 44.184C46.1874 44.184 45.0681 43.9617 44.0254 43.517C42.9827 43.0723 42.0627 42.459 41.2654 41.677C40.4834 40.8797 39.8701 39.9597 39.4254 38.917C38.9807 37.8743 38.7584 36.755 38.7584 35.559ZM42.2084 35.559C42.2084 36.5557 42.4384 37.468 42.8984 38.296C43.3737 39.1087 44.0101 39.7603 44.8074 40.251C45.6047 40.7263 46.5017 40.964 47.4984 40.964C48.4644 40.964 49.3307 40.7263 50.0974 40.251C50.8794 39.7603 51.4927 39.1087 51.9374 38.296C52.3821 37.468 52.6044 36.5557 52.6044 35.559C52.6044 34.5317 52.3744 33.6117 51.9144 32.799C51.4544 31.971 50.8334 31.3193 50.0514 30.844C49.2694 30.3533 48.3877 30.108 47.4064 30.108C46.4251 30.108 45.5434 30.3533 44.7614 30.844C43.9794 31.3193 43.3584 31.971 42.8984 32.799C42.4384 33.6117 42.2084 34.5317 42.2084 35.559ZM59.3793 44V26.382H59.4023L68.8093 39.722L67.3833 39.4L76.7673 26.382H76.8133V44H73.4783V33.903L73.6853 35.628L67.9583 43.77H67.9123L62.0243 35.628L62.5993 34.041V44H59.3793ZM81.1889 27.072H84.5239V44H81.1889V27.072ZM104.05 44.69L91.216 33.098L92.205 33.65L92.274 44H88.893V26.405H89.031L101.589 37.951L100.853 37.629L100.784 27.072H104.142V44.69H104.05ZM108.501 27.072H120.047V30.292H111.836V33.903H119.104V37.123H111.836V40.78H120.369V44H108.501V27.072ZM123.82 27.072H135.366V30.292H127.155V33.903H134.423V37.123H127.155V40.78H135.688V44H123.82V27.072Z" fill="#EF4836"/>
<path d="M43.5 59C27.2932 59 2 59 2 59V13C2 13 27.2932 13 43.5 13M110 59C125.816 59 153 59 153 59V13C140.577 13 110 13 110 13" stroke="#EF4836" stroke-width="3"/>
<path d="M59 53L60.587 56.8157L64.7063 57.1459L61.5679 59.8343L62.5267 63.8541L59 61.7L55.4733 63.8541L56.4321 59.8343L53.2937 57.1459L57.413 56.8157L59 53Z" fill="#EF4836"/>
<path d="M77 53L78.587 56.8157L82.7063 57.1459L79.5679 59.8343L80.5267 63.8541L77 61.7L73.4733 63.8541L74.4321 59.8343L71.2937 57.1459L75.413 56.8157L77 53Z" fill="#EF4836"/>
<path d="M95 53L96.587 56.8157L100.706 57.1459L97.5679 59.8343L98.5267 63.8541L95 61.7L91.4733 63.8541L92.4321 59.8343L89.2937 57.1459L93.413 56.8157L95 53Z" fill="#EF4836"/>
<path d="M59 5L60.587 8.81565L64.7063 9.1459L61.5679 11.8343L62.5267 15.8541L59 13.7L55.4733 15.8541L56.4321 11.8343L53.2937 9.1459L57.413 8.81565L59 5Z" fill="#EF4836"/>
<path d="M77 0L79.116 5.08754L84.6085 5.52786L80.4238 9.11246L81.7023 14.4721L77 11.6L72.2977 14.4721L73.5762 9.11246L69.3915 5.52786L74.884 5.08754L77 0Z" fill="#EF4836"/>
<path d="M95 5L96.587 8.81565L100.706 9.1459L97.5679 11.8343L98.5267 15.8541L95 13.7L91.4733 15.8541L92.4321 11.8343L89.2937 9.1459L93.413 8.81565L95 5Z" fill="#EF4836"/>
</svg>
